<?xml version="1.0" encoding="UTF-8" standalone="no"?>
<!-- Created with Inkscape (http://www.inkscape.org/) -->

<svg
   xmlns:dc="http://purl.org/dc/elements/1.1/"
   xmlns:cc="http://creativecommons.org/ns#"
   xmlns:rdf="http://www.w3.org/1999/02/22-rdf-syntax-ns#"
   xmlns:svg="http://www.w3.org/2000/svg"
   xmlns="http://www.w3.org/2000/svg"
   xmlns:sodipodi="http://sodipodi.sourceforge.net/DTD/sodipodi-0.dtd"
   xmlns:inkscape="http://www.inkscape.org/namespaces/inkscape"
   width="210mm"
   height="297mm"
   viewBox="0 0 210 297"
   version="1.1"
   id="svg8"
   inkscape:version="0.92.4 (5da689c313, 2019-01-14)"
   sodipodi:docname="swirl.svg">
  <defs
     id="defs2" />
  <sodipodi:namedview
     id="base"
     pagecolor="#ffffff"
     bordercolor="#666666"
     borderopacity="1.0"
     inkscape:pageopacity="0.0"
     inkscape:pageshadow="2"
     inkscape:zoom="0.35"
     inkscape:cx="400"
     inkscape:cy="560"
     inkscape:document-units="mm"
     inkscape:current-layer="layer1"
     showgrid="false"
     inkscape:window-width="1920"
     inkscape:window-height="1001"
     inkscape:window-x="-9"
     inkscape:window-y="-9"
     inkscape:window-maximized="1" />
  <metadata
     id="metadata5">
    <rdf:RDF>
      <cc:Work
         rdf:about="">
        <dc:format>image/svg+xml</dc:format>
        <dc:type
           rdf:resource="http://purl.org/dc/dcmitype/StillImage" />
        <dc:title></dc:title>
      </cc:Work>
    </rdf:RDF>
  </metadata>
  <g
     inkscape:label="Layer 1"
     inkscape:groupmode="layer"
     id="layer1">
    <path
       sodipodi:type="spiral"
       style="fill:none;fill-rule:evenodd;stroke:#000000;stroke-width:0.26458332"
       id="path3715"
       sodipodi:cx="94.494049"
       sodipodi:cy="135.98213"
       sodipodi:expansion="1"
       sodipodi:revolution="3"
       sodipodi:radius="109.76939"
       sodipodi:argument="-17.912619"
       sodipodi:t0="0"
       d="m 94.494049,135.98213 c 3.259591,4.43457 -4.369537,6.58172 -7.370538,5.41766 -8.132527,-3.15455 -7.839196,-14.14355 -3.464772,-20.15873 7.824818,-10.75976 23.720521,-9.73282 32.946921,-1.51189 13.54012,12.06454 11.70485,33.43546 -0.44099,45.73512 -16.188491,16.3935 -43.200446,13.7116 -58.523312,-2.39388 C 38.359094,142.8033 41.904738,110.08088 61.988119,91.758902 86.311783,69.568531 124.78035,73.986659 146.08782,98.058547 171.19792,126.42643 165.90236,170.662 137.83529,194.94644 105.43075,222.98379 55.414951,216.80772 28.159205,184.74103 -2.8105069,148.30481 4.2480624,92.499816 40.317499,62.276749 80.781955,28.371036 142.38249,36.313494 175.56997,76.387927 212.41436,120.87814 203.58703,188.27888 159.50591,224.42859" />
  </g>
</svg>
